<svg width="599" height="198" viewBox="0 0 599 198" fill="none" xmlns="http://www.w3.org/2000/svg">
<g filter="url(#filter0_d_9_3)">
<path d="M210.639 131V58.2H235.183C243.364 58.2 249.777 60.1413 254.423 64.024C259.137 67.8373 261.495 73.5573 261.495 81.184C261.495 88.88 259.137 94.704 254.423 98.656C249.777 102.608 243.364 104.584 235.183 104.584H225.199V131H210.639ZM225.199 91.48H234.351C238.303 91.48 241.353 90.648 243.503 88.984C245.652 87.32 246.727 84.7547 246.727 81.288C246.727 77.8213 245.652 75.2907 243.503 73.696C241.353 72.032 238.303 71.2 234.351 71.2H225.199V91.48ZM275.725 72.448C273.368 72.448 271.357 71.6507 269.693 70.056C268.098 68.392 267.301 66.416 267.301 64.128C267.301 61.9093 268.098 60.0027 269.693 58.408C271.357 56.744 273.368 55.912 275.725 55.912C278.152 55.912 280.162 56.744 281.757 58.408C283.352 60.0027 284.149 61.9093 284.149 64.128C284.149 66.4853 283.352 68.4613 281.757 70.056C280.162 71.6507 278.152 72.448 275.725 72.448ZM268.757 131V76.92H282.797V131H268.757ZM311.693 132.352C302.61 132.352 295.122 129.197 289.229 122.888L298.693 114.256C302.645 118.693 306.874 120.912 311.381 120.912C313.807 120.912 315.645 120.392 316.893 119.352C318.21 118.243 318.869 116.891 318.869 115.296C318.869 114.325 318.626 113.493 318.141 112.8C317.725 112.107 316.789 111.448 315.333 110.824C313.946 110.2 311.831 109.576 308.989 108.952C304.135 107.773 300.53 106.317 298.173 104.584C295.815 102.851 294.255 100.909 293.493 98.76C292.73 96.6107 292.349 94.392 292.349 92.104C292.349 87.3893 294.117 83.472 297.653 80.352C301.258 77.1627 306.215 75.568 312.525 75.568C316.893 75.568 320.637 76.2267 323.757 77.544C326.877 78.8613 329.823 81.3227 332.597 84.928L322.405 92.728C321.087 90.648 319.597 89.1573 317.933 88.256C316.338 87.3547 314.639 86.904 312.837 86.904C310.895 86.904 309.266 87.2853 307.949 88.048C306.701 88.8107 306.077 90.024 306.077 91.688C306.077 92.5893 306.493 93.4907 307.325 94.392C308.157 95.224 310.167 96.056 313.357 96.888C318.626 98.2053 322.647 99.7653 325.421 101.568C328.194 103.301 330.101 105.277 331.141 107.496C332.181 109.715 332.701 112.176 332.701 114.88C332.701 118.208 331.765 121.189 329.893 123.824C328.09 126.459 325.594 128.539 322.405 130.064C319.285 131.589 315.714 132.352 311.693 132.352ZM340.253 131V55.08H354.293V84.408C357.205 78.584 362.647 75.672 370.621 75.672C374.503 75.672 378.005 76.5733 381.125 78.376C384.245 80.1787 386.706 82.744 388.509 86.072C390.311 89.4 391.213 93.352 391.213 97.928V131H377.173V101.36C377.173 96.6453 376.098 93.248 373.949 91.168C371.799 89.0187 368.991 87.944 365.525 87.944C362.543 87.944 359.909 89.0187 357.621 91.168C355.402 93.248 354.293 96.6453 354.293 101.36V131H340.253ZM401.138 131V76.92H414.762V87.216C415.663 83.3333 417.5 80.3867 420.274 78.376C423.047 76.296 426.791 75.3947 431.506 75.672V88.88H429.53C425.508 88.88 422.111 90.1627 419.338 92.728C416.564 95.2933 415.178 98.8293 415.178 103.336V131H401.138ZM460.264 132.352C455.341 132.352 450.835 131.104 446.744 128.608C442.723 126.043 439.499 122.645 437.072 118.416C434.715 114.117 433.536 109.368 433.536 104.168C433.536 100.285 434.229 96.6453 435.616 93.248C437.003 89.7813 438.909 86.7653 441.336 84.2C443.763 81.5653 446.571 79.52 449.76 78.064C453.019 76.5387 456.52 75.776 460.264 75.776C464.979 75.776 468.653 76.6773 471.288 78.48C473.923 80.2133 475.968 82.536 477.424 85.448V76.92H491.36V131H477.736V122.16C476.28 125.211 474.2 127.672 471.496 129.544C468.861 131.416 465.117 132.352 460.264 132.352ZM462.552 119.664C465.672 119.664 468.341 118.971 470.56 117.584C472.848 116.128 474.616 114.221 475.864 111.864C477.112 109.507 477.736 106.941 477.736 104.168C477.736 101.325 477.112 98.7253 475.864 96.368C474.616 94.0107 472.848 92.104 470.56 90.648C468.341 89.192 465.672 88.464 462.552 88.464C459.571 88.464 456.936 89.192 454.648 90.648C452.429 92.0347 450.696 93.9067 449.448 96.264C448.2 98.6213 447.576 101.221 447.576 104.064C447.576 106.768 448.2 109.333 449.448 111.76C450.696 114.117 452.429 116.024 454.648 117.48C456.936 118.936 459.571 119.664 462.552 119.664ZM505.734 131V88.88H498.142V76.92H505.734V73.28C505.734 67.8027 507.363 63.4 510.622 60.072C513.881 56.744 518.249 55.08 523.726 55.08H529.55V67.04H525.91C521.819 67.04 519.774 69.1893 519.774 73.488V76.92H530.798V88.88H519.774V131H505.734ZM543.588 131V88.88H534.956V76.92H543.588V64.44H557.628V76.92H568.028V88.88H557.628V131H543.588Z" fill="url(#paint0_radial_9_3)"/>
</g>
<g filter="url(#filter1_d_9_3)">
<circle cx="99" cy="95" r="56.5" stroke="url(#paint1_linear_9_3)" stroke-width="25" shape-rendering="crispEdges"/>
</g>
<defs>
<filter id="filter0_d_9_3" x="180.639" y="29.08" width="417.389" height="137.272" filterUnits="userSpaceOnUse" color-interpolation-filters="sRGB">
<feFlood flood-opacity="0" result="BackgroundImageFix"/>
<feColorMatrix in="SourceAlpha" type="matrix" values="0 0 0 0 0 0 0 0 0 0 0 0 0 0 0 0 0 0 127 0" result="hardAlpha"/>
<feOffset dy="4"/>
<feGaussianBlur stdDeviation="15"/>
<feComposite in2="hardAlpha" operator="out"/>
<feColorMatrix type="matrix" values="0 0 0 0 0 0 0 0 0 0 0 0 0 0 0 0 0 0 0.6 0"/>
<feBlend mode="normal" in2="BackgroundImageFix" result="effect1_dropShadow_9_3"/>
<feBlend mode="normal" in="SourceGraphic" in2="effect1_dropShadow_9_3" result="shape"/>
</filter>
<filter id="filter1_d_9_3" x="0" y="0" width="198" height="198" filterUnits="userSpaceOnUse" color-interpolation-filters="sRGB">
<feFlood flood-opacity="0" result="BackgroundImageFix"/>
<feColorMatrix in="SourceAlpha" type="matrix" values="0 0 0 0 0 0 0 0 0 0 0 0 0 0 0 0 0 0 127 0" result="hardAlpha"/>
<feOffset dy="4"/>
<feGaussianBlur stdDeviation="15"/>
<feComposite in2="hardAlpha" operator="out"/>
<feColorMatrix type="matrix" values="0 0 0 0 0 0 0 0 0 0 0 0 0 0 0 0 0 0 0.6 0"/>
<feBlend mode="normal" in2="BackgroundImageFix" result="effect1_dropShadow_9_3"/>
<feBlend mode="normal" in="SourceGraphic" in2="effect1_dropShadow_9_3" result="shape"/>
</filter>
<radialGradient id="paint0_radial_9_3" cx="0" cy="0" r="1" gradientUnits="userSpaceOnUse" gradientTransform="translate(387 95) scale(182 52)">
<stop stop-color="#EAEAEA"/>
<stop offset="1" stop-color="#CBCBCB"/>
</radialGradient>
<linearGradient id="paint1_linear_9_3" x1="168" y1="95" x2="30" y2="95" gradientUnits="userSpaceOnUse">
<stop stop-color="white"/>
<stop offset="1" stop-color="#999999"/>
</linearGradient>
</defs>
</svg>
